<svg xmlns="http://www.w3.org/2000/svg" width="87.503" height="77.847" viewBox="0 0 87.503 77.847"><defs><style>.a{fill:#5b5b5b;}.b{fill:#e5bb4e;}.c{fill:none;}</style></defs><g transform="translate(-618.313 -364.416)"><path class="a" d="M660.022,410.585l1.6-1.662a3.182,3.182,0,0,0,1.244-1.877,1.838,1.838,0,0,0-.477-1.45c-.807-.949-1.873-2.028-2.926-2a1.438,1.438,0,0,0-.526.119c-.254.11-.5.225-.745.343.025-.841-2.14-1.562-2.59-1.7a7.937,7.937,0,0,0-2.412-.419c-.182.006-.733.023-.909.4a.25.25,0,0,0-.013.034.3.3,0,0,0-.021.074l-.741,4.366-.015-.178c0-.011-.018-.094-.02-.1-.082-.271-.358-.574-1.362-.556a6.821,6.821,0,0,0-1.69.3c-.964.288-2.559.994-2.433,1.776l.073,1.846a1.286,1.286,0,0,0-.2-.01.769.769,0,0,0-.751.581c-2.015,6.86-1.477,12.354,1.6,16.332,3.363,4.345,9.067,5.875,13.513,5.875.2,0,.408,0,.608-.01a11.7,11.7,0,0,0,4.436-.879c1.259-.6,2-2.816,1.981-5.935C667.208,420.051,664.719,413.057,660.022,410.585Zm-4.985-6.426a7.456,7.456,0,0,1,1.184.471l-.063.561a19.9,19.9,0,0,0-2.832,2.184l.591-3.488A8.548,8.548,0,0,1,655.037,404.158Zm5.48,3.226-3.408,3.5a9.781,9.781,0,0,0-.707,1.008,9.941,9.941,0,0,0-1.091,7.536.961.961,0,0,0,.954.737.951.951,0,0,0,.915-.976,1.066,1.066,0,0,0-.025-.186,8.021,8.021,0,0,1,.837-6.084,7.473,7.473,0,0,1,.637-.908l.21.1c2.462,1.134,3.98,3.7,4.82,5.645a21.6,21.6,0,0,1,1.69,8.1,11.157,11.157,0,0,1-.378,3.207,2.075,2.075,0,0,1-.524,1.012,10.041,10.041,0,0,1-3.685.7,18.351,18.351,0,0,1-6.718-1.06,14.475,14.475,0,0,1-3.216-1.621,11.1,11.1,0,0,1-4.9-8.163,21.043,21.043,0,0,1,.658-7.727c.232.152.487.338.763.551.58.45,1.076.894,1.271,1.071l1.32,1.238a.315.315,0,0,0,.5-.108l.7-1.657a13.633,13.633,0,0,1,1.907-2.891,17.679,17.679,0,0,1,2.646-2.57,18.343,18.343,0,0,1,3.842-2.322,2.171,2.171,0,0,1,.394.269,8.628,8.628,0,0,1,1.012,1.04l.028.034A1.73,1.73,0,0,1,660.516,407.384Zm-11.56.7h0a5.982,5.982,0,0,1,.741-.173l.292,3.537c-.171.285-.3.526-.4.707-.353-.31-.961-.826-1.609-1.288l-.094-2.344A5.257,5.257,0,0,1,648.957,408.084Z" transform="translate(6.544 9.591)"/><g transform="translate(618.313 364.416)"><path class="b" d="M646.56,403.093a8.85,8.85,0,0,1-2.209,1.684c-.338.218-.669.493-1.011.679a4.854,4.854,0,0,1-4.208-3.756,1.285,1.285,0,1,0-2.48.671,7.479,7.479,0,0,0,2.962,4.329,11.232,11.232,0,0,1-1.74.245,1.284,1.284,0,0,0-.88,2.2c.08.079.211.072.309.127a1.155,1.155,0,0,0,.607.242,17.717,17.717,0,0,0,6.522-1.714c3.889-2.061,7.1-5.854,9.171-9.225a7.6,7.6,0,0,0,1.125-3.985V365.7a1.285,1.285,0,0,0-2.569,0v28.889a5.282,5.282,0,0,1-1.384,3.511A38.611,38.611,0,0,1,646.56,403.093Z" transform="translate(-613.636 -364.416)"/><path class="b" d="M659.342,398.555l0,.036c-.938-1.36-1.639-2.358-1.639-4.007V365.7a1.285,1.285,0,1,0-2.569,0v28.884a7.587,7.587,0,0,0,1.128,3.988,36.653,36.653,0,0,0,3.122,4.255,21.145,21.145,0,0,0,5.718,4.73c.089.05.175.128.265.177a2.543,2.543,0,0,0,.436.2,14.735,14.735,0,0,0,6.168,1.581,1.181,1.181,0,0,0,.488-.2c.137-.063.3-.063.409-.168a1.284,1.284,0,0,0-.881-2.2,11.125,11.125,0,0,1-1.826-.25,7.476,7.476,0,0,0,2.957-4.324,1.284,1.284,0,1,0-2.48-.671,4.8,4.8,0,0,1-4.08,3.733,18.4,18.4,0,0,1-4.666-3.682A6.994,6.994,0,0,1,659.342,398.555Z" transform="translate(-608.9 -364.416)"/><path class="b" d="M666.1,405.973c.24.121.482.236.721.359a20.369,20.369,0,0,0,3.928,1.629c.12,2.539,1.248,6.286,5.049,7.162a1.284,1.284,0,0,0,.578-2.5c-2.165-.5-2.8-2.6-2.99-4.068a22.7,22.7,0,0,0,3.25.3,1.284,1.284,0,1,0,0-2.568H676.6c-5.815-.078-11.325-3.071-15.5-7.481a5.272,5.272,0,0,0-7.637,0c-7.55,7.975-15.28,7.426-15.535,7.482a1.284,1.284,0,1,0,0,2.568,20.711,20.711,0,0,0,3.156-.272c-.188,1.465-.834,3.548-2.986,4.044a1.284,1.284,0,0,0,.578,2.5c3.788-.873,4.918-4.6,5.047-7.135a22.48,22.48,0,0,0,3.129-1.185c.018-.008,2.185-1.131,2.479-1.312l2.462-1.753a31.2,31.2,0,0,0,3.536-3.173,2.661,2.661,0,0,1,1.954-.836c1.861,0,1.7,1.12,5.658,4.161l2.465,1.706C665.638,405.734,665.871,405.855,666.1,405.973Z" transform="translate(-613.625 -356.044)"/><g transform="translate(48.952 21.493)"><path class="c" d="M666.273,423.014a13.15,13.15,0,0,1-3.773-1.807l0,.2A10.138,10.138,0,0,0,666.273,423.014Z" transform="translate(-655.969 -371.39)"/><path class="a" d="M695.505,430.711l-.043-.315c-2.682-20.033-5.216-38.953-17.651-47.194a10.03,10.03,0,0,0-5.561-1.669c-5.122,0-13.04,3.888-13.486,9.259l-.28,3.386a6.994,6.994,0,0,0,2.547,3.2c-.07-.075-.147-.146-.216-.221l.511-6.15c.309-3.743,6.93-6.9,10.924-6.9a7.465,7.465,0,0,1,4.141,1.242c11.463,7.6,13.921,25.956,16.524,45.393l.043.316a2.036,2.036,0,0,1-2.017,2.3H669.314c-.294,0-.584-.021-.871-.045-.009,0-.015,0-.023,0-.044,0-.09-.009-.136-.011l-.075-.006a5.269,5.269,0,0,1-.91-.141,10.138,10.138,0,0,1-3.777-1.611,14.363,14.363,0,0,1-.321,2.821,12.91,12.91,0,0,0,6.114,1.557h21.629a4.6,4.6,0,0,0,4.563-5.214Z" transform="translate(-656.995 -381.533)"/><path class="a" d="M657.592,402.52l-.005.067c.014-.014.028-.029.041-.041Z" transform="translate(-657.224 -376.168)"/><path class="a" d="M660.086,404.221l-2.428-1.681c-.014.013-.028.028-.041.041a21.655,21.655,0,0,0-.1,3.466c1.818,1.308,2.459-.128,2.459-.128Z" transform="translate(-657.253 -376.162)"/><path class="a" d="M659.592,412.4l.431-7.165-2.459,1.7L657.3,410.3A8.561,8.561,0,0,1,659.592,412.4Z" transform="translate(-657.298 -375.475)"/><path class="a" d="M666.447,422.771c-.053,0-.105,0-.158-.008.045,0,.092.01.136.011C666.432,422.774,666.438,422.771,666.447,422.771Z" transform="translate(-654.999 -370.992)"/></g><g transform="translate(0 21.493)"><path class="a" d="M652.036,430.131a10.264,10.264,0,0,1-7.491,3.224H622.916a2.008,2.008,0,0,1-1.531-.7,2.2,2.2,0,0,1-.443-1.925c2.6-19.437,5.062-37.8,16.524-45.393a7.47,7.47,0,0,1,4.142-1.242c3.994,0,10.614,3.16,10.924,6.9l.493,5.957c-.444.5-.9.9-1.356,1.332-.186.176-.318.306-.433.423a9.98,9.98,0,0,0,4.215-4.992c-.038.049-.078.1-.105.141l-.254-3.073c-.446-5.372-8.364-9.259-13.484-9.259a10.032,10.032,0,0,0-5.563,1.669c-13.2,8.748-15.4,30.382-17.692,47.51a4.6,4.6,0,0,0,4.562,5.212h21.629a12.814,12.814,0,0,0,8.953-3.643c-.753-.984-1.458-2.146-1.458-2.146Z" transform="translate(-618.313 -381.533)"/><path class="a" d="M649.214,402.4l-2.462,1.753c.053.819.1,1.577.147,2.293a6.274,6.274,0,0,1,2.535-.594Z" transform="translate(-611.043 -376.199)"/></g></g></g></svg>