<svg xmlns="http://www.w3.org/2000/svg" width="78" height="78" viewBox="0 0 78 78"><defs><style>.a{fill:#e5bb4e;}.b{fill:none;stroke:#5b5b5b;stroke-miterlimit:10;stroke-width:2.5px;}</style></defs><g transform="translate(-517 -369)"><g transform="translate(517 369)"><path class="a" d="M556,369a39,39,0,1,0,39,39A39,39,0,0,0,556,369Zm-9.641,3.944a33.035,33.035,0,0,0-8.536,13.164,57.053,57.053,0,0,1-8.5-2.787A36.34,36.34,0,0,1,546.359,372.944Zm-18.825,12.445a58.694,58.694,0,0,0,9.43,3.331,62.882,62.882,0,0,0-2.891,17.966v-.053H519.7A36.163,36.163,0,0,1,527.534,385.389Zm0,45.081a36.163,36.163,0,0,1-7.835-21.243l14.374.035a62.87,62.87,0,0,0,2.891,18.018A58.667,58.667,0,0,0,527.534,430.47Zm1.789,2.174v-.105a56.9,56.9,0,0,1,8.5-2.786,33.047,33.047,0,0,0,8.536,13.3A36.345,36.345,0,0,1,529.323,432.644Zm25.363,11.6c-5.89-.754-11.043-6.468-14.321-14.951a77.932,77.932,0,0,1,14.321-1.525Zm0-19.21a80.341,80.341,0,0,0-15.2,1.647,61.189,61.189,0,0,1-2.769-17.371v-.052h17.966Zm0-18.405H536.72a61.2,61.2,0,0,1,2.769-17.528,80.3,80.3,0,0,0,15.2,1.752Zm0-18.4a77.924,77.924,0,0,1-14.321-1.508c3.277-8.518,8.431-14.214,14.321-14.968Zm29.78-2.734a36.163,36.163,0,0,1,7.835,21.243H577.927a62.887,62.887,0,0,0-2.891-18.053A58.671,58.671,0,0,0,584.466,385.494Zm-1.806-2.138a57.111,57.111,0,0,1-8.5,2.787,33.058,33.058,0,0,0-8.519-13.2A36.349,36.349,0,0,1,582.66,383.356Zm-25.346-11.6c5.89.754,11.044,6.468,14.321,14.951a77.931,77.931,0,0,1-14.321,1.525Zm0,19.1a80.236,80.236,0,0,0,15.2-1.647,61.2,61.2,0,0,1,2.769,17.528H557.314Zm0,18.511H575.28a61.2,61.2,0,0,1-2.769,17.528,80.3,80.3,0,0,0-15.2-1.752Zm0,34.88V427.772a77.923,77.923,0,0,1,14.321,1.508C568.358,437.8,563.2,443.494,557.314,444.248Zm8.327-1.192a33.037,33.037,0,0,0,8.536-13.181,56.906,56.906,0,0,1,8.5,2.787A36.351,36.351,0,0,1,565.641,443.056Zm18.825-12.445a58.693,58.693,0,0,0-9.43-3.331,62.882,62.882,0,0,0,2.891-17.966v.053H592.3A36.163,36.163,0,0,1,584.466,430.611Z" transform="translate(-517 -369)"/></g><circle class="b" cx="37.696" cy="37.696" r="37.696" transform="translate(518.304 370.304)"/></g></svg>