<svg xmlns="http://www.w3.org/2000/svg" width="94.386" height="77.847" viewBox="0 0 94.386 77.847"><defs><style>.a{fill:#e5bb4e;}.b{fill:#5b5b5b;}</style></defs><g transform="translate(-414.288 -372.99)"><g transform="translate(414.288 372.99)"><path class="a" d="M508.514,400.99a9.3,9.3,0,0,0-3.815-5.62,1.534,1.534,0,0,0-.284-.25c-.463-3.118-2.434-8.025-7.368-9.066a11.081,11.081,0,0,0-10.153-6.843,13.173,13.173,0,0,0-1.758.127,1.491,1.491,0,0,0-.351-.3,11.082,11.082,0,0,0-8.637-4.1,13.367,13.367,0,0,0-3.327.442,12.676,12.676,0,0,0-7.844-2.388,22.94,22.94,0,0,0-7.833,1.531,19.936,19.936,0,0,0-6.988-1.352,12.974,12.974,0,0,0-10.315,4.686c-2.872.046-13.938.946-15.683,11.95a13.73,13.73,0,0,0-9.87,13c0,4.423,2.261,11.366,7.083,13.805a15.71,15.71,0,0,0,1.535,12.8c2.35,3.8,7.675,8.319,19.488,8.24l-1.958,3.417a4.4,4.4,0,0,0-1.078,2.969,7.246,7.246,0,0,0,6.794,6.8,4.384,4.384,0,0,0,3.111-1.217,1.659,1.659,0,0,0,.216-.269l7.76-12.286c2.286-.033,8.372-.571,10.413-5.208.447.029,1,.052,1.622.052,4.281,0,11.684-1.02,15.259-7.543a15.134,15.134,0,0,0,4.235.526c2.255,0,10-.418,14.909-5.8,2.734-2.994,3.955-6.868,3.637-11.519A9.863,9.863,0,0,0,508.514,400.99Zm-4,5.342a1.512,1.512,0,0,0-.266,1.006c.365,3.992-.581,7.257-2.814,9.7-3.238,3.549-8.667,4.815-12.667,4.815a9.335,9.335,0,0,1-3.74-.548,14.824,14.824,0,0,1-4.479-11.2,15.577,15.577,0,0,0,4.157.6,8.394,8.394,0,0,0,1.068-.056,1.518,1.518,0,0,0-.393-3.011c-.252.032-6.349.694-11.733-5.629a1.519,1.519,0,0,0-2.314,1.97,19.676,19.676,0,0,0,6.227,4.96,18.507,18.507,0,0,0,4.465,13.635c-2.786,5.44-9.112,6.292-12.752,6.292-.276,0-.517-.008-.755-.017a17.156,17.156,0,0,1-4.546-12.529c4.491-2.282,4.65-5.535,4.656-5.716a1.52,1.52,0,0,0-3.035-.131c0,.035-.413,3.456-8.067,4.64a1.519,1.519,0,0,0,.23,3.019,1.472,1.472,0,0,0,.234-.02,24.1,24.1,0,0,0,2.933-.64,20.461,20.461,0,0,0,4.293,12.2,1.309,1.309,0,0,0-.089.2c-1.1,4.537-8.485,4.159-8.627,4.147a1.523,1.523,0,0,0-1.374.705l-8.1,12.82a1.465,1.465,0,0,1-.875.252,4.248,4.248,0,0,1-3.757-3.765,1.375,1.375,0,0,1,.341-.981,1.479,1.479,0,0,0,.243-.315l3.414-5.94a1.517,1.517,0,0,0-1.316-2.273c-.032,0-.064,0-.1,0-1,.064-1.95.092-2.867.093-.106-7.218,4.467-8.391,4.7-8.444a1.518,1.518,0,0,0-.627-2.97c-.074.014-7.166,1.62-7.1,11.307-6.519-.514-11.189-2.8-13.6-6.7a12.538,12.538,0,0,1-.962-10.935,18.016,18.016,0,0,0,11.328-4.217,14.85,14.85,0,0,0,4.125,5.775,1.518,1.518,0,0,0,1.853-2.4c-.2-.16-4.957-3.987-4.306-12.258a1.519,1.519,0,0,0-1.394-1.634,1.492,1.492,0,0,0-1.632,1.394,20.46,20.46,0,0,0,.357,5.875c-.024.026-.057.036-.079.065-.166.2-4.1,4.848-12.154,4.343-3.419-1.841-5.3-7.4-5.3-11.018a10.678,10.678,0,0,1,7.664-10.039,9.157,9.157,0,0,0,3.3,4.521,9.5,9.5,0,0,0,5.6,1.625,19.732,19.732,0,0,0,6.306-1.192,1.518,1.518,0,1,0-.98-2.873c-4.062,1.388-7.142,1.377-9.164-.032-2.456-1.713-2.685-5.078-2.7-5.457,1.862-7.817,10.112-8.468,12.745-8.468.234,0,.375.007.395.007a1.49,1.49,0,0,0,1.3-.606,9.924,9.924,0,0,1,8.37-4.084,16.723,16.723,0,0,1,5.539,1.019c.792.517,5.807,4.155,4.07,12.085a1.518,1.518,0,0,0,1.157,1.808,1.551,1.551,0,0,0,.328.035,1.517,1.517,0,0,0,1.48-1.193,14.7,14.7,0,0,0-2.941-13.11,18.528,18.528,0,0,1,5.187-.822c4.346,0,6.275,1.981,6.344,2.052a1.525,1.525,0,0,0,1.585.431,10.818,10.818,0,0,1,3.242-.537,8.121,8.121,0,0,1,6.524,3.273,13.27,13.27,0,0,1-4.686,12.421c-.018.017-.027.04-.045.057a15.308,15.308,0,0,0-8.071-2.844,1.519,1.519,0,0,0,.01,3.037c.258,0,6.363.113,10.914,7.078a1.518,1.518,0,0,0,2.543-1.66,21.1,21.1,0,0,0-3.036-3.677,16.077,16.077,0,0,0,5.544-13.354c.358-.036.712-.059,1.05-.059,5.6,0,7.52,5.282,7.633,5.6a1.519,1.519,0,0,0,1.294,1.08c3.259.349,4.653,3.12,5.24,5.12-2.927-.312-6.938.491-10.651,4.509a1.519,1.519,0,0,0,2.23,2.062c4.378-4.739,8.591-3.606,9.808-3.134a6.709,6.709,0,0,1,3.086,4.069A7.007,7.007,0,0,1,504.515,406.331Z" transform="translate(-414.288 -372.99)"/><path class="a" d="M452.962,390.033c-.056.031-5.691,2.766-12.912-1.505a1.518,1.518,0,1,0-1.546,2.612,20.226,20.226,0,0,0,5.939,2.386c-.12,1.755-.959,6.592-6.433,10.647a1.518,1.518,0,1,0,1.807,2.439c6.227-4.613,7.42-10.216,7.633-12.675.273.013.545.025.806.025a14.462,14.462,0,0,0,6.069-1.214,1.519,1.519,0,1,0-1.363-2.715Z" transform="translate(-405.185 -366.954)"/></g><g transform="translate(414.288 372.99)"><path class="b" d="M508.514,400.99a9.3,9.3,0,0,0-3.815-5.62,1.534,1.534,0,0,0-.284-.25c-.463-3.118-2.434-8.025-7.368-9.066a11.081,11.081,0,0,0-10.153-6.843,13.173,13.173,0,0,0-1.758.127,1.491,1.491,0,0,0-.351-.3,11.082,11.082,0,0,0-8.637-4.1,13.367,13.367,0,0,0-3.327.442,12.676,12.676,0,0,0-7.844-2.388,22.94,22.94,0,0,0-7.833,1.531,19.936,19.936,0,0,0-6.988-1.352,12.974,12.974,0,0,0-10.315,4.686c-2.872.046-13.938.946-15.683,11.95a13.73,13.73,0,0,0-9.87,13c0,4.423,2.261,11.366,7.083,13.805a15.71,15.71,0,0,0,1.535,12.8c2.35,3.8,7.675,8.319,19.488,8.24l-1.958,3.417a4.4,4.4,0,0,0-1.078,2.969,7.246,7.246,0,0,0,6.794,6.8,4.384,4.384,0,0,0,3.111-1.217,1.659,1.659,0,0,0,.216-.269l7.76-12.286c2.286-.033,8.372-.571,10.413-5.208.447.029,1,.052,1.622.052,4.281,0,11.684-1.02,15.259-7.543a15.134,15.134,0,0,0,4.235.526c2.255,0,10-.418,14.909-5.8,2.734-2.994,3.955-6.868,3.637-11.519A9.863,9.863,0,0,0,508.514,400.99ZM482.026,422.58c-2.786,5.44-9.112,6.292-12.752,6.292-.276,0-.517-.008-.755-.017-.617-.609-3.39,1.019-3.3.822a1.309,1.309,0,0,0-.089.2c-1.1,4.537-8.485,4.159-8.627,4.147a1.523,1.523,0,0,0-1.374.705l-8.1,12.82a1.465,1.465,0,0,1-.875.252,4.248,4.248,0,0,1-3.757-3.765,1.375,1.375,0,0,1,.341-.981,1.479,1.479,0,0,0,.243-.315l3.414-5.94a1.517,1.517,0,0,0-1.316-2.273c-.032,0-.064,0-.1,0a39.869,39.869,0,0,1-5.9-.014c-6.519-.514-11.189-2.8-13.6-6.7a12.538,12.538,0,0,1-.962-10.935,24.747,24.747,0,0,1-1.9-3.06c-3.419-1.841-5.3-7.4-5.3-11.018a10.678,10.678,0,0,1,7.664-10.039,7.284,7.284,0,0,1,2.36-3.408c1.862-7.817,10.112-8.468,12.745-8.468.234,0,.375.007.395.007a1.49,1.49,0,0,0,1.3-.606,9.924,9.924,0,0,1,8.37-4.084,16.723,16.723,0,0,1,5.539,1.019,10.67,10.67,0,0,1,4.094-.375,18.528,18.528,0,0,1,5.187-.822c4.346,0,6.275,1.981,6.344,2.052a1.525,1.525,0,0,0,1.585.431,10.818,10.818,0,0,1,3.242-.537,8.121,8.121,0,0,1,6.524,3.273,4.7,4.7,0,0,1,3.173,1.059c.358-.036.712-.059,1.05-.059,5.6,0,7.52,5.282,7.633,5.6a1.519,1.519,0,0,0,1.294,1.08c3.259.349,4.653,3.12,5.24,5.12a5.292,5.292,0,0,1,1.387,3.437,6.709,6.709,0,0,1,3.086,4.069,7.007,7.007,0,0,1-1.018,4.774,1.512,1.512,0,0,0-.266,1.006c.365,3.992-.581,7.257-2.814,9.7-3.238,3.549-8.667,4.815-12.667,4.815a9.335,9.335,0,0,1-3.74-.548" transform="translate(-414.288 -372.99)"/></g></g></svg>