<svg xmlns="http://www.w3.org/2000/svg" width="23.864" height="28.03" viewBox="0 0 23.864 28.03"><defs><style>.a{fill:#e4ba4e;}.b{fill:#5b5b5b;}</style></defs><g transform="translate(-368 -300)"><path class="a" d="M504.5,625H491.413a.576.576,0,1,0,0,1.152H504.5a.576.576,0,1,0,0-1.152Z" transform="translate(-116.816 -308.297)"/><path class="a" d="M504.5,561H491.413a.6.6,0,0,0,0,1.2H504.5a.6.6,0,0,0,0-1.2Z" transform="translate(-116.816 -247.587)"/><path class="b" d="M422.276,413.1c-.1,0-.224,0-.276.008v1.041a1.326,1.326,0,0,0,.234.019c.734,0,.817-.3.817-.557C423.05,413.462,423.058,413.1,422.276,413.1Z" transform="translate(-51.173 -107.291)"/><path class="b" d="M482.477,413.1c-.109,0-.268.01-.477.029v2.491c.209.007.27.01.438.01a.994.994,0,0,0,.919-.444,1.668,1.668,0,0,0,.221-.894C483.579,413.483,483.232,413.1,482.477,413.1Z" transform="translate(-108.144 -107.297)"/><path class="b" d="M381.3,370.456A1.456,1.456,0,0,0,379.843,369H369.456A1.456,1.456,0,0,0,368,370.456v4.209a1.456,1.456,0,0,0,1.456,1.456h10.387a1.456,1.456,0,0,0,1.456-1.456Zm-9.055,2.357a1.978,1.978,0,0,1-1.241.369,1.589,1.589,0,0,1-.176-.006v1.479h-.89v-4.027l.152-.027a6.234,6.234,0,0,1,1.009-.1,1.866,1.866,0,0,1,1.185.347,1.156,1.156,0,0,1,.463.945A1.222,1.222,0,0,1,372.243,372.813Zm3.745,1.147a2.015,2.015,0,0,1-1.665.684c-.22,0-.557-.026-1.048-.078l-.144-.019v-3.92l.143-.02c.6-.068.964-.1,1.179-.1a1.894,1.894,0,0,1,1.556.637,2.1,2.1,0,0,1,.418,1.359A2.274,2.274,0,0,1,375.989,373.959Zm3.425-2.6h-1.728v.733h1.623v.89h-1.623v1.675h-.942v-4.136h2.67Z" transform="translate(0 -65.388)"/><path class="b" d="M434.647,300H424.409A1.431,1.431,0,0,0,423,301.456v1.424h1.18v-.739a.924.924,0,0,1,.912-.958h9.555v6.739a1.434,1.434,0,0,0,1.422,1.438H442.8V325.94a.969.969,0,0,1-.965.959H425.092a.925.925,0,0,1-.912-.959V311.263H423v15.361a1.388,1.388,0,0,0,1.409,1.406h18.114a1.433,1.433,0,0,0,1.462-1.406V309.358Z" transform="translate(-52.12)"/></g></svg>